<svg xmlns="http://www.w3.org/2000/svg" xmlns:xlink="http://www.w3.org/1999/xlink" version="1.1" x="0px" y="0px" viewBox="-55 147 500 625" style="enable-background:new -55 147 500 500;" xml:space="preserve">
<path d="M438.9,383.3c-8.4,2.5-15.5,7.5-22.3,12.4c-2.7,1.9-5.3,3.8-8,5.5c-1-0.9-2.2-1.8-3.4-2.4l0.4-1.1  c1.9-5.7,3.8-11.6,6.9-16.5c1.4-2.2,1.1-5.3-1-6.8c-2.2-1.7-5.4-1.1-6.9,1.2c-3.8,6-6,12.6-8.1,19l-0.7,2  c-0.7,0-17.4,16.3-17.4,16.7l-22.8,12.5c-3,1.7-6.5,1.9-9.8,0.7c-2.4-0.9-12.9-39.9-18.3-60.7c1.7-7.2,2.4-13.8,2.2-19.9  c-0.2-5.1,1.7-10.1,5.2-13.7l0.2-0.2c4-4.1,9.6-5.9,15.2-5.2c10.8,1.3,23.3-2.2,37.5-12.5c31.7-23,44.9-60,29.3-82.6  s-53.9-22.4-85.7,0.6c-16.1,11.7-23.5,24.1-24.8,36.5c-1,10-7.1,18.9-16.8,23c-3.6,1.5-7.5,2.1-11.3,2c-1.8-0.1-3.6,0-5.5,0.2  l-24.4-42c-3.1-6.6-2.2-14.3,2.2-20.1l18.2-23.7c0.4,0,4.9-2.4,5.9-2.9c0.5-0.3,8.8-3.1,9-3.3c5.1,0.2,10.3,0,15.4-0.7  c0.8-0.1,1.6-0.2,2.4-0.4c3.3-0.5,6.5-1,9.3-0.6c2.5,0.4,5-1.1,5.6-3.6c0.7-2.8-1.1-5.6-3.9-6.1c-4.4-0.8-8.6-0.1-12.6,0.5  c-0.8,0.1-1.5,0.2-2.3,0.3c-3.2,0.5-6.4,0.7-9.7,0.7c0.5-3.4,0-7-1.3-10.2c4.7-3.9,9-8.2,13.1-12.4c3.4-3.4,6.9-7,10.6-10.3  c2-1.8,2.3-4.9,0.5-6.9c-1.7-2.1-4.7-2.3-6.8-0.5c-4,3.5-7.6,7.2-11.1,10.7c-4.1,4.2-8.1,8.2-12.4,11.8c-2.3-1.7-4.9-2.8-7.6-3.3  c1-6.6,0.8-13.3-0.4-19.9c-0.4-2.3-2.4-4.2-4.7-4.2c-3.1,0-5.3,2.9-4.7,5.9c1.2,6.3,1.2,12.9,0,19.3c-1.3,0.5-3.3,6.5-3.9,8.8  c-1.2,4.8-6.9,13.5-6.7,14.2l-18.2,23.8c-20.5,22.7-4.1,68,4.9,88.1c-13.8,9.5-28.7,24.4-44.8,46c-10.7,14.4-19.8,29-27.3,43.2  c-27.9-9.2-67-19.8-82.3-12.2l-50.3,19.2c1.4-4.2,3-8.3,4.8-12.3c0.4-0.8,0.7-1.7,1.1-2.5c2.8-6.3,6.1-13.3,6-21.1  c0-2.7-2.1-5.2-4.7-5.2c-2.8-0.1-5,2.3-4.9,5.1c0.1,5.6-2.4,11.2-5.1,17.1c-0.3,0.6-0.5,1.2-0.8,1.8c3.1-13.6,6.6-28.8,3.1-43.9  c-0.5-2.3-2.5-4.1-4.9-4c-3.1,0.1-5.2,3.1-4.5,6.1c3,13.1-0.3,27.5-3.2,40.2l-1.1,4.9c-0.5-2.6-1.2-5.3-2.2-7.9  c-1.6-4.4-4-8.3-6.3-12.1c-1.4-2.3-4.2-3.2-6.5-1.9c-2.4,1.4-3.2,4.5-1.7,6.9c2.1,3.4,4.2,7,5.6,10.6c1.2,3.2,1.8,6.8,2.5,10.5  c0,0,1.2,7.8,1,7.9c0.4,1.7-0.6,18.9-1,25.7c0,0.5-0.1,1.2-0.1,1.9c-0.1,2.1,1,4.1,2.9,5.1c0.1,0.1,0.2,0.1,0.3,0.2  c1.5,0.7,3.2,0.6,4.6-0.2c1.4-0.8,2.7-1.6,3.5-2c5.6-3,10.9-7.6,17-9.5c0.1-0.2,52-20.5,52-20.5c4.6-1.7,35.7,17.1,58.4,31.6  c-2.3,7.1-4.1,13.9-5.3,20.3c-8.9,47-32.9,89.7-69.6,119.2c-6,4.8-12.1,9.2-18.3,13.2c-20.4,13.1-41.8,22.8-61.9,31.4  c-13.5,5.7-32.2,13.3-48.2,19.8c-1.7,0.7-2.7,2.5-2.4,4.4c0,0,0,0,0,0.1c0.4,2.1,2.4,3.5,4.5,3.2c22.9-4.3,46.1-8.8,66.5-13.6  c21.9-5.1,47.3-11.5,70.5-22.9c33.8-16.6,63.1-41.8,84.8-72.1c9.3-13,21.6-23.5,35.8-30.2c9.2-4.3,18.9-10.4,28.7-17.8  c18.6,1.5,55,4.7,55.2,7.6c0,0,1.5,38.2,1.6,46.5c0.1,5.9-1.7,11.7-1.6,17.6c0.1,7,1.8,13.1,9.8,10.8c8.1-2.3,14.7-9.2,22.6-12.7  c0-0.1,0-0.2,0-0.3l4.6-1.1c3.4-0.9,7-1.7,10.4-1.9c3.8-0.2,7.6,0.3,11.7,0.9c2.9,0.4,5.6-1.9,5.4-5.1c-0.1-2.4-2.1-4.4-4.4-4.7  c-4.3-0.6-8.7-1.2-13.3-0.9c-2.7,0.2-5.4,0.7-7.9,1.2l3.9-3.1c10-7.9,21.4-16.9,34.2-19.5c2.5-0.5,4.4-2.9,4.1-5.5  c-0.4-2.8-3-4.7-5.7-4.2c-14.9,2.9-27.1,12.4-37.9,21c0.4-0.5,0.9-1,1.3-1.5c4.1-4.9,8-9.6,13.1-11.7c1.8-0.8,3.1-2.6,3-4.7  c-0.2-3.7-3.7-5.7-6.7-4.4c-7.1,3.1-12.2,9.1-16.7,14.4c-0.6,0.7-1.2,1.4-1.8,2.1c-2.1,2.4-4.2,4.8-6.4,7l-2.7-41.5  c-1.1-19.2-21.4-32.1-39.2-39.9c7.3-8,14.5-16.7,21.4-26c5.2-7,9.7-13.7,13.7-20c8.8,13.1,17.9,26.4,19.5,28c3.3,3.4,7.3,6,11.8,7.7  c8.7,3.3,18.3,2.6,26.5-1.9l16.6-9.1c0.4-0.3,0.8-0.6,1.3-0.9c1.5-0.8,2.9-1.6,4.4-2.2c0,0,24.2-6.7,24.7-7.6  c6.3-0.4,12.6,0.5,18.5,2.7c2.4,0.9,5.2-0.1,6.3-2.5c1.1-2.6-0.1-5.6-2.7-6.6c-6.3-2.5-13-3.6-19.7-3.5c-0.1-1.8-0.4-3.5-0.9-5.2  c2.8-1.8,5.5-3.7,8.2-5.6c6.5-4.6,12.6-8.9,19.5-11c2.2-0.7,3.7-2.7,3.5-5.1C444.8,384.4,441.7,382.4,438.9,383.3z"/>
</svg>