<svg xmlns="http://www.w3.org/2000/svg" version="1.1" viewBox="-5.0 -10.0 100.0 130.0">
<path d="m74.938 37.73c-0.41016-0.59766-0.35547-1.3945 0.13281-1.9336 0.050782-0.054687 0.10156-0.10547 0.16016-0.15234-3.0898-4.2539-9.0117-11.219-16.133-13.68-5.7852-2-15.438-2.0234-23.957 2.4258-7.0391 3.6758-11.945 9.8125-14.191 17.742-3.5078 12.395 0.070312 21.75 3.5391 27.289 0.16406-0.27734 0.41797-0.50781 0.73828-0.64062 0.77344-0.32031 1.6641 0.019531 2.0156 0.77734 0.96875 2.0664 5.4883 4.7852 9.4883 6.7344 0.12891-0.035157 0.26172-0.050781 0.40234-0.050781h1.6953c-14.848-10.043-20.148-16.402-13.148-37.234 3.0391-9.0469 11.121-14.359 21.434-14.125 10.277 0.19531 23.121 6.4688 27.027 19.77 1.7891 6.0938 1.2539 11.48-1.5977 16.012-4.7734 7.5898-14.59 10.434-18.152 11.238v0.44922c0 0.65625-0.41406 1.2461-1.0312 1.4688-1.8398 0.66406-3.5039 1.832-3.5742 2.3242 1.0859 1.5156 4.1367 1.2578 5.125 1.0586 0.10547-0.019531 0.20703-0.03125 0.3125-0.03125 0.56641 0 1.1016 0.30859 1.3789 0.82422 0.22266 0.41406 0.24219 0.89844 0.078126 1.3203 3.8828-0.12109 9.2109-2.0703 11.828-3.2109-0.51562-0.007813-1.0078-0.26953-1.2969-0.72266-0.37891-0.59375-0.3125-1.3633 0.15234-1.8828 0.074219-0.082031 7.5234-8.4023 11.254-14.711 3.1523-5.3242 1.457-12.723 1.1016-14.098l-4.7695-6.9609z"/>
</svg>