<svg xmlns="http://www.w3.org/2000/svg" xmlns:xlink="http://www.w3.org/1999/xlink" version="1.1" x="0px" y="0px" viewBox="0 0 32 40" style="enable-background:new 0 0 32 32;" xml:space="preserve">
<g><path d="M4.52,26.51c-0.46,0-0.86-0.31-0.97-0.76C2.27,20.68,2,16.17,2,13.27c0-0.26,0.01-0.48,0.02-0.69   c0.03-0.55,0.49-0.99,1.05-0.95c0.55,0.03,0.97,0.5,0.94,1.05C4,12.92,4,13.1,4,13.27c0,2.78,0.26,7.11,1.49,11.99   c0.13,0.54-0.19,1.08-0.73,1.22C4.68,26.5,4.6,26.51,4.52,26.51z M29.51,23.53c-0.43,0-0.81-0.271-0.95-0.681   c-0.37-1.09-1.24-3.64-1.67-6.43c-0.04-0.26,0.021-0.52,0.18-0.74c0.16-0.22,0.391-0.36,0.65-0.4c0.54-0.08,1.061,0.3,1.15,0.84   c0.35,2.32,1.029,4.47,1.58,6.081c0.18,0.52-0.091,1.09-0.61,1.27C29.729,23.51,29.62,23.53,29.51,23.53z M27.63,14.28   c-0.55,0-1-0.45-1-1s0.45-1,1-1s1,0.45,1,1l0,0l0,0l0,0C28.63,13.83,28.18,14.28,27.63,14.28L27.63,14.28z M27.27,11.31   c-0.46,0-0.859-0.31-0.97-0.75c-0.37-1.5-1.04-2.88-1.98-4.11c-0.17-0.21-0.239-0.47-0.199-0.74c0.029-0.26,0.17-0.5,0.38-0.66   c0.43-0.33,1.08-0.24,1.41,0.19c1.1,1.44,1.89,3.07,2.33,4.83c0.13,0.54-0.19,1.08-0.73,1.21C27.43,11.3,27.35,11.31,27.27,11.31z    M3.54,10.69c-0.1,0-0.2-0.02-0.3-0.05c-0.52-0.16-0.82-0.72-0.66-1.25c0.53-1.73,1.4-3.31,2.59-4.7c0.34-0.41,1-0.46,1.41-0.11   C7,4.93,7.05,5.57,6.69,5.99c-1.01,1.18-1.75,2.52-2.2,3.99C4.36,10.4,3.98,10.69,3.54,10.69z M23.02,4.7   c-0.229,0-0.45-0.07-0.62-0.21C20.37,2.86,17.92,2,15.32,2c-1.45,0-2.86,0.27-4.19,0.8c0,0,0,0-0.01,0c-0.5,0.21-1.1-0.05-1.3-0.56   C9.72,2,9.73,1.72,9.83,1.48c0.11-0.25,0.3-0.44,0.55-0.54c4.37-1.74,9.59-0.96,13.27,1.98c0.42,0.35,0.49,0.98,0.15,1.41   C23.609,4.57,23.319,4.7,23.02,4.7z M8.13,4.31c-0.32,0-0.62-0.15-0.81-0.42C7,3.45,7.1,2.82,7.55,2.5   c0.43-0.31,1.08-0.2,1.39,0.23C9.1,2.94,9.16,3.21,9.12,3.47c-0.05,0.27-0.19,0.5-0.41,0.65C8.54,4.25,8.34,4.31,8.13,4.31z"/><path d="M9.843,30.614c-0.396,0-0.771-0.236-0.928-0.627c-0.748-1.858-1.359-3.837-1.817-5.881   c-0.121-0.539,0.218-1.073,0.757-1.194c0.535-0.124,1.074,0.217,1.194,0.757c0.435,1.938,1.015,3.813,1.722,5.572   c0.206,0.513-0.042,1.095-0.555,1.301C10.093,30.591,9.967,30.614,9.843,30.614z M26.808,27.402c-0.343,0-0.678-0.177-0.863-0.494   c-0.884-1.505-1.621-3.218-2.192-5.09l-0.001-0.001c-1.234-4.045-1.33-7.632-1.33-8.636c0-0.157-0.005-0.312-0.016-0.467   c-0.036-0.551,0.381-1.027,0.932-1.064c0.546-0.053,1.027,0.38,1.064,0.931c0.013,0.198,0.02,0.398,0.02,0.6   c0,0.933,0.09,4.271,1.242,8.05c0.001,0.001,0.001,0.002,0.001,0.003c0.526,1.723,1.201,3.291,2.005,4.662   c0.279,0.477,0.12,1.089-0.356,1.368C27.153,27.358,26.979,27.402,26.808,27.402z M7.522,21.938c-0.487,0-0.913-0.355-0.987-0.852   C6.061,17.921,6,15.199,6,13.182c0-0.456,0.034-0.914,0.101-1.361c0,0,0-0.001,0-0.002C6.77,7.361,10.686,4,15.21,4   c0.127,0,0.255,0.003,0.381,0.008c0.552,0.021,0.982,0.486,0.96,1.038c-0.021,0.551-0.47,1.016-1.038,0.96   C15.414,6.002,15.312,6,15.21,6c-3.543,0-6.608,2.629-7.131,6.116c0,0,0,0,0,0.001C8.027,12.466,8,12.825,8,13.182   c0,1.948,0.058,4.574,0.512,7.608c0.082,0.547-0.294,1.056-0.841,1.138C7.621,21.935,7.571,21.938,7.522,21.938z M22.669,10.759   c-0.378,0-0.738-0.214-0.908-0.579c-0.748-1.612-2.061-2.888-3.695-3.593c-0.507-0.219-0.74-0.808-0.521-1.314   c0.219-0.506,0.803-0.742,1.314-0.522c2.086,0.9,3.761,2.529,4.717,4.588c0.232,0.501,0.015,1.095-0.486,1.328   C22.953,10.729,22.81,10.759,22.669,10.759z"/><path d="M15,32c-0.397,0-0.772-0.237-0.929-0.629c-0.199-0.497,0.026-1.071,0.516-1.291c0.49-0.221,1.061-0.021,1.301,0.458   c0.012,0.024,0.03,0.064,0.041,0.091c0.205,0.513-0.044,1.095-0.557,1.3C15.25,31.978,15.124,32,15,32z M23.436,30.03   c-0.337,0-0.666-0.17-0.854-0.479c-2.823-4.617-3.838-9.91-4.191-12.655c-0.07-0.547,0.316-1.049,0.864-1.119   c0.563-0.071,1.049,0.317,1.12,0.864c0.332,2.585,1.283,7.566,3.914,11.867c0.288,0.471,0.14,1.087-0.332,1.375   C23.793,29.983,23.613,30.03,23.436,30.03z M13.862,29.204c-0.409,0-0.793-0.253-0.94-0.659c-1.1-3.038-2.19-6.891-2.484-8.771   c-0.212-1.367-0.362-2.762-0.446-4.147c-0.034-0.551,0.386-1.025,0.938-1.059c0.549-0.029,1.025,0.386,1.059,0.938   c0.08,1.323,0.224,2.656,0.427,3.96c0.271,1.743,1.343,5.51,2.388,8.396c0.188,0.52-0.081,1.093-0.6,1.281   C14.09,29.186,13.976,29.204,13.862,29.204z M19.132,14.778c-0.537,0-0.98-0.426-0.998-0.967c-0.007-0.19-0.01-0.371-0.01-0.542   c-0.01-1.739-1.336-3.27-2.838-3.27c-1.742,0-3.151,1.134-3.349,2.696c-0.069,0.548-0.565,0.941-1.118,0.866   c-0.548-0.07-0.936-0.57-0.866-1.118C10.28,9.869,12.522,8,15.286,8c2.605,0,4.821,2.411,4.838,5.264   c0,0.156,0.003,0.314,0.008,0.482c0.019,0.552-0.414,1.014-0.966,1.032C19.154,14.778,19.144,14.778,19.132,14.778z"/><path d="M19.37,31.25c-0.36,0-0.7-0.2-0.88-0.51l-0.75-1.33c-0.7-1.351-1.311-2.79-1.811-4.29c-0.09-0.25-0.07-0.521,0.05-0.761   c0.12-0.239,0.32-0.42,0.57-0.5c0.52-0.18,1.1,0.11,1.27,0.62c0.48,1.41,1.051,2.761,1.7,4.011l0.721,1.27   c0.27,0.48,0.1,1.09-0.381,1.36C19.71,31.21,19.54,31.25,19.37,31.25z M16.04,22.92c-0.46,0-0.86-0.311-0.97-0.771   c-0.06-0.26-0.02-0.52,0.12-0.75c0.14-0.229,0.36-0.39,0.62-0.449c0.53-0.131,1.08,0.21,1.209,0.739c0.13,0.53-0.209,1.08-0.74,1.2   C16.2,22.91,16.12,22.92,16.04,22.92z M15.46,19.979c-0.49,0-0.91-0.359-0.99-0.85C14.16,17.1,14,15.03,14,13v-0.01   c0.01-0.55,0.46-0.99,1-0.99c0.55,0,1,0.45,1,1c0,1.91,0.16,3.93,0.45,5.819c0.09,0.551-0.29,1.061-0.83,1.15   C15.57,19.97,15.51,19.979,15.46,19.979z"/></g>
</svg>